# xmcd
#
# Track frame offsets:
#	150
#	12118
#	26809
#	36109
#	47826
#	55686
#	82415
#	97331
#	111300
#	127731
#	143620
#
# Disc length: 2014 seconds
#
# Revision: 1
# Processed by: cddbd v1.5.2PL0 Copyright (c) Steve Scherf et al.
# Submitted via: audiograbber 1.83.01
#
DISCID=9307dc0b
DTITLE=Varios - Música Del Oeste - Vol.1
DYEAR=2003
DGENRE=Country
TTITLE0=Ennio Morricone - El Bueno, El Feo Y El Malo
TTITLE1=Tiomkin - Webster - El Alamo "Las Hojas Verdes Del Verano"
TTITLE2=Ennio Morricone - Por Un Puñado De Dólares
TTITLE3=Faith - El Virginiano
TTITLE4=Newman - Bennett - La Conquista Del Oeste
TTITLE5=Trad. - Adapt. - P.Romo - La Conquista Del Oeste "La Canción De La Prad
TTITLE5=era"
TTITLE6=Bernstein - Los Siete Magnificos
TTITLE7=Tiomkin - Washington - Solo Ante El Peligro "Si Me Abandonas"
TTITLE8=Loewe - Lerner - La Leyenda De La Ciudad Sin Nombre "Estrella Errante"
TTITLE9=Livingston - Evans - Bonanza
TTITLE10=Sin Nombre - Pista 11
EXTD=Alberto N.
EXTT0=
EXTT1=
EXTT2=
EXTT3=
EXTT4=
EXTT5=
EXTT6=
EXTT7=
EXTT8=
EXTT9=
EXTT10=
PLAYORDER=
